<?xml version="1.0" encoding="UTF-8"?>
<svg xmlns="http://www.w3.org/2000/svg" 
     version="1.1"
     viewBox="0 0 924 323">

<!-- Navy elements -->
<g transform="translate(0,323) scale(0.1,-0.1)" fill="#1b3e5c" stroke="none">
<path d="M1302 2955 c-29 -13 -330 -195 -537 -325 -33 -21 -109 -68 -170 -105
-60 -37 -112 -70 -115 -74 -3 -4 -18 -15 -33 -25 -67 -42 -67 -38 -67 -684 0
-553 1 -585 19 -620 18 -34 119 -106 321 -229 35 -21 35 -21 375 193 666 421
640 404 645 430 13 75 4 397 -11 405 -12 6 -22 2 -34 -11 -10 -11 -29 -20 -42
-20 -12 0 -33 -10 -44 -21 -25 -25 -125 -79 -145 -79 -8 0 -17 -7 -20 -15 -3
-8 -18 -21 -32 -28 -15 -8 -53 -28 -85 -45 -31 -18 -63 -32 -70 -32 -13 0 -67
-27 -124 -62 -33 -20 -33 -20 -33 235 0 247 1 255 23 287 23 34 60 56 605 354
138 76 252 143 252 147 0 11 -120 90 -176 116 -21 10 -43 23 -49 29 -11 12
-239 150 -292 178 -39 20 -116 20 -161 1z M5011 2698 c-313 -35 -450 -430
-226 -653 247 -247 685 -74 685 271 0 245 -200 411 -459 382z m157 -167 c230
-119 135 -473 -120 -449 -224 22 -276 345 -73 451 43 23 146 22 193 -2z M2812
2318 l3 -373 78 -3 77 -3 0 376 0 375 -80 0 -80 0 2 -372z M3112 2318 l3 -373
75 0 75 0 5 237 5 237 179 -234 c196 -256 183 -245 267 -245 l59 0 0 375 0
375 -80 0 -80 0 -2 -230 -3 -230 -101 132 c-55 73 -134 177 -175 231 -74 97
-74 97 -152 97 l-77 0 2 -372z M3910 2315 l0 -376 78 3 77 3 3 238 2 239 132
-174 c252 -332 230 -309 306 -306 l67 3 3 373 2 373 -82 -3 -83 -3 -3 -224
c-3 -240 -3 -242 -57 -158 -16 25 -215 288 -258 340 -39 47 -39 47 -113 47
l-74 0 0 -375z M2840 533 c6 -10 28 -47 50 -82 31 -49 40 -73 40 -107 0 -37 3
-44 20 -44 17 0 20 7 20 48 0 37 7 58 33 97 73 108 69 100 43 103 -19 1 -31
-10 -57 -53 -41 -67 -37 -67 -77 0 -26 43 -39 55 -58 55 -21 0 -23 -3 -14 -17z
M3143 528 c-40 -28 -53 -57 -53 -112 0 -127 174 -173 240 -63 74 121 -72 256
-187 175z m138 -44 c51 -55 13 -154 -60 -154 -39 0 -79 34 -87 74 -16 88 87
144 147 80z M3410 460 c0 -127 34 -178 113 -167 82 11 107 53 107 177 0 79 -1
81 -22 78 -22 -3 -23 -9 -28 -98 -5 -89 -7 -95 -31 -109 -65 -36 -99 9 -99
129 0 73 -2 80 -20 80 -19 0 -20 -7 -20 -90z M3700 426 c0 -119 1 -126 20
-126 17 0 20 7 20 40 0 68 69 51 109 -27 7 -15 17 -20 31 -16 19 5 19 8 7 27
-44 67 -43 63 -14 86 21 17 27 30 27 59 0 58 -26 75 -121 80 -79 3 -79 3 -79
-123z m148 72 c35 -35 -1 -78 -64 -78 -44 0 -44 0 -44 45 0 45 0 45 48 45 26
0 53 -5 60 -12z M4102 538 c-62 -30 -38 -105 43 -133 47 -15 61 -25 63 -42 4
-29 -38 -41 -86 -23 -35 12 -61 3 -48 -18 11 -18 76 -34 110 -28 98 18 91 122
-9 147 -50 13 -68 29 -59 53 7 19 73 23 91 5 14 -14 33 -3 33 17 0 30 -91 44
-138 22z M4317 543 c-12 -21 -7 -164 6 -195 27 -64 123 -76 176 -23 36 35 47
225 13 225 -18 0 -20 -8 -24 -95 -4 -104 -16 -124 -69 -125 -47 0 -64 32 -67
131 -4 82 -17 113 -35 82z M4643 528 c-102 -73 -55 -233 69 -233 66 0 120 29
91 50 -14 11 -21 10 -37 -1 -73 -51 -164 42 -122 124 22 43 82 57 126 30 32
-20 48 11 19 35 -31 25 -106 23 -146 -5z M4909 527 c-98 -65 -58 -218 61 -234
41 -6 110 21 110 42 0 20 -21 23 -50 8 -39 -20 -69 -15 -102 17 -76 76 21 194
112 138 32 -20 48 11 19 35 -31 25 -107 23 -150 -6z M5142 423 c3 -128 3 -128
83 -128 92 -1 105 2 105 21 0 11 -18 14 -75 14 -75 0 -75 0 -75 35 0 35 0 35
65 35 58 0 65 2 65 20 0 18 -7 20 -65 20 -65 0 -65 0 -65 35 0 35 0 35 76 35
66 0 75 2 72 18 -3 14 -17 17 -96 20 l-93 3 3 -128z M5409 532 c-52 -43 -25
-104 56 -128 84 -24 84 -83 0 -69 -66 11 -78 11 -82 -1 -6 -19 81 -47 121 -40
99 19 85 117 -22 151 -45 14 -53 20 -50 38 3 20 9 22 61 22 39 0 57 4 57 12 0
35 -103 45 -141 15z M5652 534 c-13 -9 -21 -22 -18 -30 3 -8 1 -14 -4 -14 -18
0 -10 -40 10 -58 11 -9 42 -24 68 -32 39 -13 47 -19 47 -40 0 -32 -53 -40 -92
-15 -22 15 -27 15 -40 2 -32 -32 79 -71 136 -47 75 31 57 111 -32 140 -55 18
-70 31 -61 54 6 15 16 17 60 14 59 -5 58 -5 44 23 -14 24 -85 26 -118 3z
M5980 425 c0 -118 1 -125 20 -125 19 0 20 7 20 125 0 118 -1 125 -20 125 -19
0 -20 -7 -20 -125z M6115 530 c-10 -11 -14 -20 -10 -20 5 0 4 -5 -3 -12 -31
-31 7 -79 78 -98 52 -14 71 -37 45 -56 -25 -19 -65 -18 -94 2 -20 15 -24 15
-38 1 -32 -32 79 -71 136 -48 82 35 55 124 -46 145 -76 17 -66 64 15 68 53 3
55 4 38 21 -25 25 -97 23 -121 -3z"/>
</g>

<!-- Orange elements -->
<g transform="translate(0,323) scale(0.1,-0.1)" fill="#e8841f" stroke="none">
<path d="M5800 2714 c-127 -24 -191 -98 -198 -229 -6 -130 31 -170 213 -236
116 -42 145 -63 145 -105 0 -79 -115 -99 -206 -36 -57 41 -60 40 -117 -12 -59
-53 -55 -73 24 -128 166 -115 416 -57 460 107 41 152 -24 256 -191 304 -117
34 -170 68 -170 110 0 73 105 94 188 37 58 -39 57 -39 120 11 51 42 51 43 7
88 -67 67 -186 105 -275 89z M6242 2318 l3 -373 225 -3 c289 -3 272 -8 268 76
-3 67 -3 67 -168 72 -164 5 -164 5 -166 72 -4 86 0 88 149 85 140 -2 130 -9
128 91 -1 52 -1 52 -136 52 -74 0 -135 3 -136 8 -16 155 -20 151 164 154 152
3 152 3 152 68 l0 65 -243 3 -242 2 2 -372z M6875 2677 c-3 -6 -4 -174 -3
-372 l3 -360 70 0 c70 0 70 0 75 115 5 115 5 115 62 118 57 3 57 3 85 -40 33
-51 38 -60 81 -132 37 -63 50 -69 137 -64 77 4 76 8 -9 142 -62 97 -78 136
-57 136 6 0 26 15 45 33 129 118 94 359 -60 416 -67 26 -420 32 -429 8z m378
-157 c51 -41 47 -138 -6 -171 -27 -16 -47 -19 -127 -17 -95 3 -95 3 -98 92 -4
122 -10 116 106 116 85 0 103 -3 125 -20z M7520 2676 c0 -8 5 -28 11 -43 6
-15 15 -37 20 -48 4 -11 20 -51 34 -90 26 -67 136 -339 154 -380 5 -11 23 -54
39 -95 31 -75 31 -75 107 -75 76 0 76 0 181 265 58 146 111 279 119 295 25 51
65 158 65 172 0 10 -21 13 -84 13 -94 0 -80 11 -121 -100 -7 -19 -20 -53 -28
-75 -9 -22 -30 -78 -47 -125 -67 -179 -78 -205 -86 -205 -4 0 -20 34 -35 75
-160 451 -145 424 -246 428 -68 2 -83 0 -83 -12z M8355 2678 c-3 -7 -4 -175
-3 -373 l3 -360 225 -3 c284 -3 270 -7 270 67 0 80 -1 80 -181 83 -154 3 -154
3 -157 76 -2 53 1 72 10 74 15 2 52 3 181 6 87 2 87 2 87 72 0 70 0 70 -134
70 -153 0 -146 -4 -146 90 0 72 -6 70 181 70 150 0 150 0 147 68 l-3 67 -238
3 c-185 2 -239 0 -242 -10z M2100 2543 c-8 -3 -17 -9 -20 -13 -5 -6 -49 -31
-180 -103 -488 -267 -608 -337 -630 -367 -23 -32 -31 -360 -9 -360 5 0 7 -5 4
-10 -9 -14 131 60 155 82 10 10 24 18 30 18 6 0 42 18 78 41 94 57 92 55 146
80 81 37 79 43 83 -264 3 -305 6 -294 -104 -359 -30 -18 -70 -42 -87 -53 -120
-75 -178 -111 -228 -143 -32 -21 -145 -92 -253 -160 -107 -68 -198 -128 -202
-135 -7 -12 -8 -11 142 -110 376 -248 348 -244 590 -90 72 46 137 88 145 93
17 12 180 116 290 186 41 26 119 76 173 111 53 35 101 63 105 63 4 0 22 14 40
31 32 30 32 30 32 658 0 707 6 647 -77 703 -160 106 -182 116 -223 101z M4540
1710 c-346 -48 -448 -518 -155 -711 136 -89 361 -75 473 29 41 39 40 50 -6 95
-45 44 -57 45 -107 12 -48 -33 -120 -50 -176 -41 -177 26 -246 266 -115 404
79 84 191 84 318 -1 26 -18 26 -18 72 38 56 70 56 67 -1 109 -76 55 -195 81
-303 66z M6870 1708 c-130 -16 -231 -91 -298 -220 -41 -81 -40 -247 2 -330 74
-146 188 -213 361 -213 104 0 114 2 176 32 121 60 204 172 219 296 32 272
-179 471 -460 435z m181 -179 c75 -52 108 -116 109 -205 1 -237 -286 -321
-418 -122 -59 89 -28 257 58 318 67 48 191 52 251 9z M6028 1696 c-155 -55
-202 -260 -84 -363 31 -28 129 -73 159 -73 69 -1 177 -64 177 -103 0 -79 -135
-93 -262 -28 -77 40 -77 40 -118 -6 -49 -56 -49 -64 -2 -100 121 -94 326 -111
444 -37 122 77 132 270 18 349 -21 15 -93 44 -160 65 -126 40 -160 59 -160 92
0 83 112 98 241 32 28 -14 55 -22 58 -17 70 84 76 110 33 139 -88 60 -250 83
-344 50z M2880 1625 c0 -75 0 -75 115 -75 l115 0 2 -297 3 -298 80 0 80 0 3
298 2 297 110 0 c125 0 124 -1 118 96 -3 49 -3 49 -315 52 l-313 2 0 -75z
M3579 1678 c-2 -13 -2 -180 1 -373 l5 -350 240 0 240 0 3 64 c4 82 8 81 -175
81 -153 0 -153 0 -153 74 0 89 -5 86 156 86 124 0 124 0 124 69 0 66 -9 70
-150 73 -125 3 -125 3 -128 74 -3 86 -3 86 189 83 140 -2 141 -2 137 77 -3 59
-3 59 -244 62 -242 2 -242 2 -245 -20z M5105 1687 c-3 -6 -4 -174 -3 -372 l3
-360 75 0 c75 0 75 0 78 148 l3 148 152 -3 152 -3 3 -148 3 -148 77 3 77 3 3
373 2 373 -77 -3 c-78 -3 -78 -3 -81 -145 -3 -160 1 -154 -87 -148 -27 2 -89
4 -137 4 l-88 1 0 145 c0 145 0 145 -75 145 -51 0 -77 -4 -80 -13z M7472 1328
l3 -373 237 -3 c271 -3 253 -10 246 94 -3 49 -3 49 -163 54 l-160 5 -5 295 -5
295 -78 3 -77 3 2 -373z M6494 531 c-39 -24 -68 -91 -58 -135 32 -150 263
-133 264 20 0 109 -112 172 -206 115z m122 -29 c50 -33 45 -130 -8 -158 -86
-45 -166 59 -103 134 27 32 82 44 111 24z M6760 451 c0 -130 17 -156 104 -155
91 0 120 47 114 179 -3 62 -5 70 -23 70 -18 0 -20 -8 -25 -95 -6 -111 -26
-136 -88 -111 -36 15 -42 33 -42 134 0 70 -2 77 -20 77 -19 0 -20 -7 -20 -99z
M7046 542 c-6 -11 -6 -234 0 -244 13 -20 44 14 44 47 0 54 49 51 86 -5 43 -65
85 -51 44 15 -20 32 -20 32 5 55 37 35 35 92 -4 119 -30 22 -163 31 -175 13z
m140 -40 c43 -29 9 -81 -53 -79 -37 2 -38 3 -41 45 -3 42 -3 42 40 42 24 0 48
-4 54 -8z M7481 537 c-121 -62 -68 -247 71 -247 65 0 98 32 98 95 0 55 0 55
-56 55 -63 0 -77 -30 -19 -40 44 -8 43 -51 -2 -63 -89 -26 -151 79 -88 148 26
28 70 32 117 11 26 -12 37 23 13 40 -23 17 -102 18 -134 1z M7759 526 c-47
-32 -64 -85 -46 -147 30 -102 181 -119 237 -27 75 123 -70 256 -191 174z m138
-38 c26 -24 32 -91 10 -119 -71 -93 -199 5 -137 106 27 44 88 50 127 13z
M8095 519 c-9 -17 -32 -67 -51 -112 -20 -45 -38 -88 -41 -94 -11 -26 37 -13
49 12 6 14 16 25 22 26 87 8 111 4 124 -23 14 -29 37 -37 45 -15 3 11 -23 81
-74 195 -24 52 -51 56 -74 11z m55 -75 c10 -30 10 -38 -1 -45 -36 -23 -62 17
-39 60 16 30 27 26 40 -15z M8314 537 c-2 -7 -3 -65 -2 -128 3 -114 3 -114 82
-117 55 -2 82 1 87 10 13 20 0 28 -46 28 -74 0 -75 1 -75 100 0 49 -3 95 -6
104 -7 19 -33 21 -40 3z"/>
</g>
</svg>